<svg width="18" height="24" viewBox="0 0 18 24" fill="none" xmlns="http://www.w3.org/2000/svg">
<path d="M12.6978 5.07382C11.5142 3.56473 10.2916 2.005 9.30484 0.330972C9.0444 -0.110324 8.31807 -0.110324 8.05908 0.330972C7.07087 2.005 5.84826 3.56473 4.66472 5.07382C2.2658 8.13396 0 11.0248 0 14.4438C0 19.2315 3.89353 23.125 8.68124 23.125C13.4689 23.125 17.3625 19.2315 17.3625 14.4438C17.3625 11.0248 15.0967 8.13396 12.6978 5.07382ZM6.51093 8.65628C7.70749 8.65628 8.68124 9.63002 8.68124 10.8266C8.68124 12.0231 7.70749 12.9969 6.51093 12.9969C5.31436 12.9969 4.34062 12.0231 4.34062 10.8266C4.34062 9.63002 5.31436 8.65628 6.51093 8.65628ZM5.57625 18.5731C5.43445 18.7135 5.24925 18.7844 5.06405 18.7844C4.87885 18.7844 4.69365 18.7135 4.55186 18.5731C4.26972 18.291 4.26972 17.8323 4.55186 17.5502L11.7862 10.3158C12.0684 10.0337 12.527 10.0337 12.8092 10.3158C13.0913 10.598 13.0928 11.0566 12.8106 11.3388L5.57625 18.5731ZM10.8515 20.2313C9.65498 20.2313 8.68124 19.2575 8.68124 18.0609C8.68124 16.8644 9.65498 15.8906 10.8515 15.8906C12.0481 15.8906 13.0219 16.8644 13.0219 18.0609C13.0219 19.2575 12.0481 20.2313 10.8515 20.2313Z" fill="white"/>
</svg>
