<svg width="12" height="24" viewBox="0 0 12 24" fill="none" xmlns="http://www.w3.org/2000/svg">
<path d="M9.25 12.9562V3.70624C9.25 1.78686 7.70062 0.237488 5.78125 0.237488C3.86187 0.237488 2.3125 1.78686 2.3125 3.70624V12.9562C0.913437 14.0084 0 15.6966 0 17.5812C0 20.7725 2.59 23.3625 5.78125 23.3625C8.9725 23.3625 11.5625 20.7725 11.5625 17.5812C11.5625 15.6966 10.6491 14.0084 9.25 12.9562ZM4.625 3.70624C4.625 3.0703 5.14531 2.54999 5.78125 2.54999C6.41719 2.54999 6.9375 3.0703 6.9375 3.70624H5.78125V4.86249H6.9375V7.17499H5.78125V8.33124H6.9375V10.6437H4.625V3.70624Z" fill="white"/>
</svg>
