<svg width="24" height="24" viewBox="0 0 24 24" fill="none" xmlns="http://www.w3.org/2000/svg">
<path d="M18.2398 7.70834C16.1104 4.02761 11.3891 2.76537 7.70832 4.88517C6.34973 5.67527 5.31874 6.81225 4.66353 8.1323C4.53827 6.01251 4.87551 3.89272 5.64634 1.92709H3.60363C2.11978 6.2534 2.42811 11.1578 4.88514 15.4167C5.94504 17.257 7.66014 18.4904 9.56796 19.0011C11.4758 19.5117 13.5763 19.2998 15.4167 18.2399C16.7753 17.4497 17.8062 16.3128 18.4615 14.9927C18.5867 17.1125 18.2591 19.2323 17.4883 21.1979H19.5213C20.9956 16.8716 20.6969 11.9672 18.2398 7.70834ZM14.4531 16.5729C11.6877 18.1628 8.15155 17.2185 6.55207 14.4531C6.44608 14.2604 6.34973 14.0677 6.26301 13.875C5.10676 11.2156 6.09921 8.03595 8.67186 6.55209C11.4276 4.96225 14.9734 5.90652 16.5729 8.67189C16.6789 8.86459 16.7753 9.0573 16.862 9.25001C18.0182 11.9094 17.0258 15.0891 14.4531 16.5729ZM11.5625 9.63543C12.6224 9.63543 13.4896 10.5026 13.4896 11.5625C13.4896 12.6224 12.6224 13.4896 11.5625 13.4896C10.5026 13.4896 9.63541 12.6224 9.63541 11.5625C9.63541 10.5026 10.5026 9.63543 11.5625 9.63543ZM11.5625 7.70834C9.43306 7.70834 7.70832 9.43308 7.70832 11.5625C7.70832 13.6919 9.43306 15.4167 11.5625 15.4167C13.6919 15.4167 15.4167 13.6919 15.4167 11.5625C15.4167 9.43308 13.6919 7.70834 11.5625 7.70834Z" fill="white"/>
</svg>
